<svg xmlns="http://www.w3.org/2000/svg" width="1600" height="1200" viewBox="0 0 1600 1200" fill="none">
  <!-- Topographic / Contour Line Background
       Warm sand tones, organic flowing curves -->
  <g stroke="#D5CEC3" stroke-width="1.2" fill="none" opacity="0.7">
    <!-- Layer 1 — large sweeping contours -->
    <path d="M-40 180 C120 140, 320 220, 480 160 C640 100, 800 200, 960 170 C1120 140, 1280 240, 1440 180 C1520 156, 1580 168, 1640 160"/>
    <path d="M-40 260 C100 230, 280 310, 460 250 C640 190, 820 280, 1000 240 C1180 200, 1360 300, 1540 250 C1600 234, 1640 248, 1660 240"/>
    <path d="M-40 360 C140 320, 340 400, 520 340 C700 280, 880 370, 1060 330 C1240 290, 1420 380, 1580 340 C1620 330, 1650 338, 1660 340"/>
    <path d="M-40 460 C160 420, 360 490, 540 440 C720 390, 900 480, 1100 430 C1300 380, 1440 470, 1600 440 C1630 434, 1650 442, 1660 440"/>
    <path d="M-40 560 C120 530, 300 600, 500 550 C700 500, 880 580, 1080 540 C1280 500, 1420 570, 1600 540 C1630 534, 1660 546, 1680 540"/>
    <path d="M-40 660 C140 620, 320 700, 520 650 C720 600, 920 690, 1120 640 C1320 590, 1480 670, 1640 640"/>
    <path d="M-40 760 C160 720, 380 800, 560 740 C740 680, 940 770, 1140 730 C1340 690, 1500 760, 1640 740"/>
    <path d="M-40 860 C120 830, 340 900, 540 850 C740 800, 960 880, 1160 840 C1360 800, 1520 870, 1640 850"/>
    <path d="M-40 960 C160 920, 360 990, 560 940 C760 890, 960 970, 1160 930 C1360 890, 1500 960, 1640 940"/>
    <path d="M-40 1060 C140 1030, 340 1100, 540 1050 C740 1000, 940 1080, 1140 1040 C1340 1000, 1500 1060, 1640 1050"/>
  </g>

  <g stroke="#CFC7BB" stroke-width="1" fill="none" opacity="0.55">
    <!-- Layer 2 — medium contours, offset rhythm -->
    <path d="M-40 120 C200 80, 400 160, 600 110 C800 60, 1000 150, 1200 110 C1400 70, 1540 130, 1660 110"/>
    <path d="M-40 220 C180 190, 360 270, 560 220 C760 170, 960 260, 1160 210 C1360 160, 1520 240, 1660 220"/>
    <path d="M-40 320 C200 280, 420 350, 600 300 C780 250, 960 340, 1140 300 C1320 260, 1500 330, 1660 310"/>
    <path d="M-40 420 C180 390, 380 460, 580 410 C780 360, 980 440, 1180 400 C1380 360, 1520 430, 1660 410"/>
    <path d="M-40 520 C200 480, 400 550, 620 510 C840 470, 1020 540, 1220 500 C1420 460, 1540 530, 1660 510"/>
    <path d="M-40 620 C180 590, 360 660, 580 620 C800 580, 1000 650, 1200 610 C1400 570, 1540 640, 1660 620"/>
    <path d="M-40 720 C200 690, 420 750, 620 710 C820 670, 1020 750, 1220 710 C1420 670, 1560 730, 1660 720"/>
    <path d="M-40 820 C180 790, 380 850, 580 810 C780 770, 980 850, 1180 810 C1380 770, 1540 830, 1660 820"/>
    <path d="M-40 920 C200 880, 400 950, 600 910 C800 870, 1000 950, 1200 910 C1400 870, 1540 930, 1660 920"/>
    <path d="M-40 1020 C180 990, 380 1060, 580 1020 C780 980, 980 1050, 1180 1010 C1380 970, 1540 1040, 1660 1020"/>
    <path d="M-40 1120 C200 1080, 400 1150, 600 1110 C800 1070, 1000 1140, 1200 1110 C1400 1070, 1540 1130, 1660 1120"/>
  </g>

  <g stroke="#C5BDB0" stroke-width="0.8" fill="none" opacity="0.4">
    <!-- Layer 3 — finer detail contours -->
    <path d="M-40 150 C240 110, 460 190, 680 140 C900 90, 1100 180, 1320 140 C1480 110, 1580 150, 1660 140"/>
    <path d="M-40 290 C220 260, 440 330, 660 280 C880 230, 1080 320, 1300 280 C1480 248, 1580 286, 1660 280"/>
    <path d="M-40 390 C260 350, 480 420, 680 380 C880 340, 1100 420, 1300 380 C1480 352, 1580 386, 1660 380"/>
    <path d="M-40 490 C240 460, 460 530, 680 480 C900 430, 1100 510, 1320 480 C1480 456, 1580 486, 1660 480"/>
    <path d="M-40 590 C260 550, 480 620, 700 580 C920 540, 1120 610, 1340 580 C1480 558, 1580 586, 1660 580"/>
    <path d="M-40 690 C220 660, 440 730, 680 690 C920 650, 1140 720, 1340 690 C1480 668, 1580 696, 1660 690"/>
    <path d="M-40 790 C260 750, 480 820, 700 780 C920 740, 1120 810, 1340 780 C1480 758, 1580 786, 1660 780"/>
    <path d="M-40 890 C240 860, 460 920, 680 880 C900 840, 1120 910, 1340 880 C1480 860, 1580 886, 1660 880"/>
    <path d="M-40 990 C260 950, 480 1020, 700 980 C920 940, 1120 1010, 1340 980 C1480 960, 1580 986, 1660 980"/>
    <path d="M-40 1090 C240 1060, 460 1120, 680 1080 C900 1040, 1120 1110, 1340 1080 C1480 1060, 1580 1086, 1660 1080"/>

    <!-- Closed contour "hills" scattered across -->
    <ellipse cx="200" cy="300" rx="80" ry="40" transform="rotate(-8, 200, 300)"/>
    <ellipse cx="200" cy="300" rx="50" ry="24" transform="rotate(-8, 200, 300)"/>

    <ellipse cx="1400" cy="500" rx="90" ry="45" transform="rotate(5, 1400, 500)"/>
    <ellipse cx="1400" cy="500" rx="55" ry="26" transform="rotate(5, 1400, 500)"/>

    <ellipse cx="300" cy="700" rx="70" ry="35" transform="rotate(-12, 300, 700)"/>
    <ellipse cx="300" cy="700" rx="40" ry="18" transform="rotate(-12, 300, 700)"/>

    <ellipse cx="1300" cy="200" rx="75" ry="38" transform="rotate(10, 1300, 200)"/>
    <ellipse cx="1300" cy="200" rx="42" ry="20" transform="rotate(10, 1300, 200)"/>

    <ellipse cx="150" cy="1000" rx="85" ry="40" transform="rotate(-6, 150, 1000)"/>
    <ellipse cx="150" cy="1000" rx="50" ry="22" transform="rotate(-6, 150, 1000)"/>

    <ellipse cx="1450" cy="850" rx="70" ry="34" transform="rotate(8, 1450, 850)"/>
    <ellipse cx="1450" cy="850" rx="38" ry="18" transform="rotate(8, 1450, 850)"/>
  </g>
</svg>
